{
    "asset" : {
        "generator" : "Khronos glTF Blender I/O v1.6.16",
        "version" : "2.0"
    },
    "scene" : 0,
    "scenes" : [
        {
            "name" : "Scene",
            "nodes" : [
                0,
                1,
                2,
                3,
                4,
                5,
                6,
                7,
                8,
                9,
                10,
                11,
                12,
                13,
                14
            ]
        }
    ],
    "nodes" : [
        {
            "mesh" : 0,
            "name" : "neontubefr",
            "rotation" : [
                0,
                0,
                -1,
                -1.6292068494294654e-07
            ],
            "scale" : [
                0.10000000149011612,
                -0.03245522826910019,
                1
            ],
            "translation" : [
                2.5206964015960693,
                0.020915895700454712,
                7.762688636779785
            ]
        },
        {
            "mesh" : 1,
            "name" : "neontubefl",
            "rotation" : [
                0,
                0,
                -1,
                -1.6292068494294654e-07
            ],
            "scale" : [
                0.10000000149011612,
                -0.03245522826910019,
                1
            ],
            "translation" : [
                -2.339303731918335,
                0.020917482674121857,
                7.762688636779785
            ]
        },
        {
            "mesh" : 2,
            "name" : "neotubemr",
            "rotation" : [
                0,
                0,
                -1,
                -1.6292068494294654e-07
            ],
            "scale" : [
                0.10000000149011612,
                -0.03245522826910019,
                1
            ],
            "translation" : [
                2.5206961631774902,
                0.02091589942574501,
                0.16268682479858398
            ]
        },
        {
            "mesh" : 3,
            "name" : "neontubeml",
            "rotation" : [
                0,
                0,
                -1,
                -1.6292068494294654e-07
            ],
            "scale" : [
                0.10000000149011612,
                -0.03245522826910019,
                1
            ],
            "translation" : [
                -2.339303731918335,
                0.020917482674121857,
                0.16268682479858398
            ]
        },
        {
            "mesh" : 4,
            "name" : "neontubebr",
            "rotation" : [
                0,
                0,
                -1,
                -1.6292068494294654e-07
            ],
            "scale" : [
                0.10000000149011612,
                -0.03245522826910019,
                1
            ],
            "translation" : [
                2.520695924758911,
                0.02091589942574501,
                -7.43731689453125
            ]
        },
        {
            "mesh" : 5,
            "name" : "neontubebl",
            "rotation" : [
                0,
                0,
                -1,
                -1.6292068494294654e-07
            ],
            "scale" : [
                0.10000000149011612,
                -0.03245522826910019,
                1
            ],
            "translation" : [
                -2.339304208755493,
                0.020917482674121857,
                -7.43731689453125
            ]
        },
        {
            "mesh" : 6,
            "name" : "neontubefl.001",
            "rotation" : [
                -0.7071068286895752,
                0,
                -0.7071068286895752,
                -1.9949604279645428e-07
            ],
            "scale" : [
                0.10000000149011612,
                -0.03245522826910019,
                1
            ],
            "translation" : [
                0.02142070233821869,
                0.020917482674121857,
                8.483644485473633
            ]
        },
        {
            "name" : "Point",
            "translation" : [
                -2.312742233276367,
                0.11548088490962982,
                0.26894843578338623
            ]
        },
        {
            "name" : "Point.001",
            "translation" : [
                -2.3223280906677246,
                -0.03244495391845703,
                7.813518524169922
            ]
        },
        {
            "name" : "Point.002",
            "translation" : [
                -0.05481839179992676,
                -0.03270149230957031,
                8.578102111816406
            ]
        },
        {
            "name" : "Point.003",
            "translation" : [
                2.5649032592773438,
                -0.03231096267700195,
                7.708600044250488
            ]
        },
        {
            "name" : "Point.004",
            "translation" : [
                2.620868682861328,
                -0.017470836639404297,
                0.15115129947662354
            ]
        },
        {
            "name" : "Point.005",
            "translation" : [
                2.552151679992676,
                -0.032741546630859375,
                -7.434261322021484
            ]
        },
        {
            "name" : "Point.006",
            "translation" : [
                -2.402118682861328,
                -0.03251957893371582,
                -7.425067901611328
            ]
        },
        {
            "mesh" : 7,
            "name" : "Cube",
            "scale" : [
                21.454517364501953,
                21.454517364501953,
                21.454517364501953
            ],
            "translation" : [
                0,
                -6,
                0
            ]
        }
    ],
    "materials" : [
        {
            "doubleSided" : true,
            "name" : "Material.001",
            "pbrMetallicRoughness" : {
                "baseColorTexture" : {
                    "index" : 0
                },
                "metallicFactor" : 0,
                "roughnessFactor" : 0.5
            }
        },
        {
            "doubleSided" : true,
            "name" : "Material.002",
            "pbrMetallicRoughness" : {
                "baseColorTexture" : {
                    "index" : 1
                },
                "metallicFactor" : 0,
                "roughnessFactor" : 0.5
            }
        }
    ],
    "meshes" : [
        {
            "name" : "Cube.003",
            "primitives" : [
                {
                    "attributes" : {
                        "POSITION" : 0,
                        "NORMAL" : 1,
                        "TEXCOORD_0" : 2
                    },
                    "indices" : 3,
                    "material" : 0
                }
            ]
        },
        {
            "name" : "Cube.004",
            "primitives" : [
                {
                    "attributes" : {
                        "POSITION" : 4,
                        "NORMAL" : 5,
                        "TEXCOORD_0" : 6
                    },
                    "indices" : 7,
                    "material" : 0
                }
            ]
        },
        {
            "name" : "Cube.005",
            "primitives" : [
                {
                    "attributes" : {
                        "POSITION" : 8,
                        "NORMAL" : 9,
                        "TEXCOORD_0" : 10
                    },
                    "indices" : 11,
                    "material" : 0
                }
            ]
        },
        {
            "name" : "Cube.006",
            "primitives" : [
                {
                    "attributes" : {
                        "POSITION" : 12,
                        "NORMAL" : 13,
                        "TEXCOORD_0" : 14
                    },
                    "indices" : 15,
                    "material" : 0
                }
            ]
        },
        {
            "name" : "Cube.007",
            "primitives" : [
                {
                    "attributes" : {
                        "POSITION" : 16,
                        "NORMAL" : 17,
                        "TEXCOORD_0" : 18
                    },
                    "indices" : 19,
                    "material" : 0
                }
            ]
        },
        {
            "name" : "Cube.008",
            "primitives" : [
                {
                    "attributes" : {
                        "POSITION" : 20,
                        "NORMAL" : 21,
                        "TEXCOORD_0" : 22
                    },
                    "indices" : 23,
                    "material" : 0
                }
            ]
        },
        {
            "name" : "Cube.010",
            "primitives" : [
                {
                    "attributes" : {
                        "POSITION" : 24,
                        "NORMAL" : 25,
                        "TEXCOORD_0" : 26
                    },
                    "indices" : 7,
                    "material" : 0
                }
            ]
        },
        {
            "name" : "Cube.011",
            "primitives" : [
                {
                    "attributes" : {
                        "POSITION" : 27,
                        "NORMAL" : 28,
                        "TEXCOORD_0" : 29
                    },
                    "indices" : 30,
                    "material" : 1
                }
            ]
        }
    ],
    "textures" : [
        {
            "sampler" : 0,
            "source" : 0
        },
        {
            "sampler" : 0,
            "source" : 1
        }
    ],
    "images" : [
        {
            "mimeType" : "image/png",
            "name" : "neontube",
            "uri" : "neontube.png"
        },
        {
            "mimeType" : "image/png",
            "name" : "Daylight Box UV",
            "uri" : "Daylight%20Box%20UV.png"
        }
    ],
    "accessors" : [
        {
            "bufferView" : 0,
            "componentType" : 5126,
            "count" : 178,
            "max" : [
                1,
                0.35554617643356323,
                1
            ],
            "min" : [
                -1,
                -1.644453763961792,
                -1
            ],
            "type" : "VEC3"
        },
        {
            "bufferView" : 1,
            "componentType" : 5126,
            "count" : 178,
            "type" : "VEC3"
        },
        {
            "bufferView" : 2,
            "componentType" : 5126,
            "count" : 178,
            "type" : "VEC2"
        },
        {
            "bufferView" : 3,
            "componentType" : 5123,
            "count" : 348,
            "type" : "SCALAR"
        },
        {
            "bufferView" : 4,
            "componentType" : 5126,
            "count" : 174,
            "max" : [
                0.9999961853027344,
                0.3555460572242737,
                1
            ],
            "min" : [
                -1.0000038146972656,
                -1.644454002380371,
                -1
            ],
            "type" : "VEC3"
        },
        {
            "bufferView" : 5,
            "componentType" : 5126,
            "count" : 174,
            "type" : "VEC3"
        },
        {
            "bufferView" : 6,
            "componentType" : 5126,
            "count" : 174,
            "type" : "VEC2"
        },
        {
            "bufferView" : 7,
            "componentType" : 5123,
            "count" : 348,
            "type" : "SCALAR"
        },
        {
            "bufferView" : 8,
            "componentType" : 5126,
            "count" : 178,
            "max" : [
                0.9999999403953552,
                0.3555460572242737,
                1.000002384185791
            ],
            "min" : [
                -1,
                -1.644454002380371,
                -0.999997615814209
            ],
            "type" : "VEC3"
        },
        {
            "bufferView" : 9,
            "componentType" : 5126,
            "count" : 178,
            "type" : "VEC3"
        },
        {
            "bufferView" : 10,
            "componentType" : 5126,
            "count" : 178,
            "type" : "VEC2"
        },
        {
            "bufferView" : 11,
            "componentType" : 5123,
            "count" : 348,
            "type" : "SCALAR"
        },
        {
            "bufferView" : 12,
            "componentType" : 5126,
            "count" : 181,
            "max" : [
                0.9999961853027344,
                0.3555460572242737,
                1.000002384185791
            ],
            "min" : [
                -1.0000038146972656,
                -1.644454002380371,
                -0.999997615814209
            ],
            "type" : "VEC3"
        },
        {
            "bufferView" : 13,
            "componentType" : 5126,
            "count" : 181,
            "type" : "VEC3"
        },
        {
            "bufferView" : 14,
            "componentType" : 5126,
            "count" : 181,
            "type" : "VEC2"
        },
        {
            "bufferView" : 15,
            "componentType" : 5123,
            "count" : 348,
            "type" : "SCALAR"
        },
        {
            "bufferView" : 16,
            "componentType" : 5126,
            "count" : 178,
            "max" : [
                1.0000001192092896,
                0.3555460572242737,
                1.0000066757202148
            ],
            "min" : [
                -1,
                -1.644454002380371,
                -0.9999933242797852
            ],
            "type" : "VEC3"
        },
        {
            "bufferView" : 17,
            "componentType" : 5126,
            "count" : 178,
            "type" : "VEC3"
        },
        {
            "bufferView" : 18,
            "componentType" : 5126,
            "count" : 178,
            "type" : "VEC2"
        },
        {
            "bufferView" : 19,
            "componentType" : 5123,
            "count" : 348,
            "type" : "SCALAR"
        },
        {
            "bufferView" : 20,
            "componentType" : 5126,
            "count" : 181,
            "max" : [
                0.9999961853027344,
                0.3555460572242737,
                1.0000066757202148
            ],
            "min" : [
                -1.0000038146972656,
                -1.644454002380371,
                -0.9999933242797852
            ],
            "type" : "VEC3"
        },
        {
            "bufferView" : 21,
            "componentType" : 5126,
            "count" : 181,
            "type" : "VEC3"
        },
        {
            "bufferView" : 22,
            "componentType" : 5126,
            "count" : 181,
            "type" : "VEC2"
        },
        {
            "bufferView" : 23,
            "componentType" : 5123,
            "count" : 348,
            "type" : "SCALAR"
        },
        {
            "bufferView" : 24,
            "componentType" : 5126,
            "count" : 174,
            "max" : [
                0.9999961853027344,
                0.3555460572242737,
                1
            ],
            "min" : [
                -1.0000038146972656,
                -1.644454002380371,
                -1
            ],
            "type" : "VEC3"
        },
        {
            "bufferView" : 25,
            "componentType" : 5126,
            "count" : 174,
            "type" : "VEC3"
        },
        {
            "bufferView" : 26,
            "componentType" : 5126,
            "count" : 174,
            "type" : "VEC2"
        },
        {
            "bufferView" : 27,
            "componentType" : 5126,
            "count" : 24,
            "max" : [
                1,
                1,
                1
            ],
            "min" : [
                -1,
                -1,
                -1
            ],
            "type" : "VEC3"
        },
        {
            "bufferView" : 28,
            "componentType" : 5126,
            "count" : 24,
            "type" : "VEC3"
        },
        {
            "bufferView" : 29,
            "componentType" : 5126,
            "count" : 24,
            "type" : "VEC2"
        },
        {
            "bufferView" : 30,
            "componentType" : 5123,
            "count" : 36,
            "type" : "SCALAR"
        }
    ],
    "bufferViews" : [
        {
            "buffer" : 0,
            "byteLength" : 2136,
            "byteOffset" : 0
        },
        {
            "buffer" : 0,
            "byteLength" : 2136,
            "byteOffset" : 2136
        },
        {
            "buffer" : 0,
            "byteLength" : 1424,
            "byteOffset" : 4272
        },
        {
            "buffer" : 0,
            "byteLength" : 696,
            "byteOffset" : 5696
        },
        {
            "buffer" : 0,
            "byteLength" : 2088,
            "byteOffset" : 6392
        },
        {
            "buffer" : 0,
            "byteLength" : 2088,
            "byteOffset" : 8480
        },
        {
            "buffer" : 0,
            "byteLength" : 1392,
            "byteOffset" : 10568
        },
        {
            "buffer" : 0,
            "byteLength" : 696,
            "byteOffset" : 11960
        },
        {
            "buffer" : 0,
            "byteLength" : 2136,
            "byteOffset" : 12656
        },
        {
            "buffer" : 0,
            "byteLength" : 2136,
            "byteOffset" : 14792
        },
        {
            "buffer" : 0,
            "byteLength" : 1424,
            "byteOffset" : 16928
        },
        {
            "buffer" : 0,
            "byteLength" : 696,
            "byteOffset" : 18352
        },
        {
            "buffer" : 0,
            "byteLength" : 2172,
            "byteOffset" : 19048
        },
        {
            "buffer" : 0,
            "byteLength" : 2172,
            "byteOffset" : 21220
        },
        {
            "buffer" : 0,
            "byteLength" : 1448,
            "byteOffset" : 23392
        },
        {
            "buffer" : 0,
            "byteLength" : 696,
            "byteOffset" : 24840
        },
        {
            "buffer" : 0,
            "byteLength" : 2136,
            "byteOffset" : 25536
        },
        {
            "buffer" : 0,
            "byteLength" : 2136,
            "byteOffset" : 27672
        },
        {
            "buffer" : 0,
            "byteLength" : 1424,
            "byteOffset" : 29808
        },
        {
            "buffer" : 0,
            "byteLength" : 696,
            "byteOffset" : 31232
        },
        {
            "buffer" : 0,
            "byteLength" : 2172,
            "byteOffset" : 31928
        },
        {
            "buffer" : 0,
            "byteLength" : 2172,
            "byteOffset" : 34100
        },
        {
            "buffer" : 0,
            "byteLength" : 1448,
            "byteOffset" : 36272
        },
        {
            "buffer" : 0,
            "byteLength" : 696,
            "byteOffset" : 37720
        },
        {
            "buffer" : 0,
            "byteLength" : 2088,
            "byteOffset" : 38416
        },
        {
            "buffer" : 0,
            "byteLength" : 2088,
            "byteOffset" : 40504
        },
        {
            "buffer" : 0,
            "byteLength" : 1392,
            "byteOffset" : 42592
        },
        {
            "buffer" : 0,
            "byteLength" : 288,
            "byteOffset" : 43984
        },
        {
            "buffer" : 0,
            "byteLength" : 288,
            "byteOffset" : 44272
        },
        {
            "buffer" : 0,
            "byteLength" : 192,
            "byteOffset" : 44560
        },
        {
            "buffer" : 0,
            "byteLength" : 72,
            "byteOffset" : 44752
        }
    ],
    "samplers" : [
        {
            "magFilter" : 9729,
            "minFilter" : 9987
        }
    ],
    "buffers" : [
        {
            "byteLength" : 44824,
            "uri" : "inforaum.bin"
        }
    ]
}
